<?xml version="1.0" encoding="UTF-8" standalone="no"?>
<!-- Created with Inkscape (http://www.inkscape.org/) -->

<svg
   width="210mm"
   height="297mm"
   viewBox="0 0 210 297"
   version="1.1"
   id="svg3268"
   inkscape:version="1.2.1 (9c6d41e410, 2022-07-14)"
   sodipodi:docname="Shary.svg"
   xmlns:inkscape="http://www.inkscape.org/namespaces/inkscape"
   xmlns:sodipodi="http://sodipodi.sourceforge.net/DTD/sodipodi-0.dtd"
   xmlns="http://www.w3.org/2000/svg"
   xmlns:svg="http://www.w3.org/2000/svg">
  <sodipodi:namedview
     id="namedview3270"
     pagecolor="#ffffff"
     bordercolor="#000000"
     borderopacity="0.25"
     inkscape:showpageshadow="2"
     inkscape:pageopacity="0.0"
     inkscape:pagecheckerboard="0"
     inkscape:deskcolor="#d1d1d1"
     inkscape:document-units="mm"
     showgrid="false"
     inkscape:zoom="0.19041982"
     inkscape:cx="645.94115"
     inkscape:cy="435.87899"
     inkscape:window-width="1920"
     inkscape:window-height="1009"
     inkscape:window-x="-8"
     inkscape:window-y="-8"
     inkscape:window-maximized="1"
     inkscape:current-layer="g3253" />
  <defs
     id="defs3265" />
  <g
     inkscape:label="Layer 1"
     inkscape:groupmode="layer"
     id="layer1">
    <g
       id="g3253"
       transform="matrix(0.26458333,0,0,0.26458333,-380.19505,88.356139)">
      <g
         id="g3429"
         transform="translate(-21.006217,-68.270204)">
        <path
           id="rect2315"
           style="fill:#00b6c4;fill-opacity:1;stroke-width:8.3146;stroke-linecap:square"
           d="m 1874.2552,92.341892 c -7.2398,0.0014 -14.9637,0.04749 -23.2031,0.13672 -63.1606,0.68402 -80.3283,2.50945 -96.4981,10.263668 -9.6464,4.62612 -21.1785,15.74357 -26.1269,25.1875 -6.9711,13.30392 -10.1338,33.95067 -10.1465,66.25196 -0.017,44.16748 5.1366,64.26648 20.4102,79.61132 14.8107,14.87979 29.1766,18.64348 77.957,20.41797 26.3691,0.95923 90.2572,0.31449 110.6191,-1.11523 27.4219,-1.92544 39.9966,-4.80561 52.1036,-11.9375 13.9999,-8.24717 23.0452,-21.94481 26.8398,-40.64649 5.9526,-29.33512 4.4524,-82.33698 -2.9375,-103.8164 -5.835,-16.95978 -19.6213,-30.6294 -37.3984,-37.082028 -11.9924,-4.3531 -33.5058,-6.59263 -71.3204,-7.13867 -6.3023,-0.09099 -13.0588,-0.13426 -20.2988,-0.13282 z" />
        <path
           style="fill:#144361;fill-opacity:1"
           d="m 1721.7,621.08433 c -5.0706,-2.0764 -5.4565,-8.70186 -1.0595,-18.18991 3.3986,-7.33355 9.2908,-13.62844 16.9484,-18.10678 5.9795,-3.49699 6.5542,-4.13988 7.5956,-8.49698 0.6196,-2.59256 4.7431,-19.48334 9.1634,-37.53507 4.4202,-18.05172 8.0368,-33.38883 8.0368,-34.08246 0,-0.69362 -2.9209,-5.62971 -6.4909,-10.96908 -7.1445,-10.68554 -12.846,-22.02263 -17.0193,-33.84164 l -2.724,-7.7145 -3.4414,1.4379 c -8.4177,3.51716 -13.3237,10.15492 -13.2974,17.99111 0.02,5.93155 2.3292,11.40872 7.9472,18.84969 5.2057,6.89488 6.0314,11.10211 2.9482,15.0218 -6.6097,8.40284 -23.7875,7.23959 -36.0068,-2.4383 -5.7409,-4.54684 -11.4018,-13.62754 -14.5595,-23.35478 -3.5342,-10.88738 -4.4117,-31.61958 -1.9077,-45.07841 6.4544,-34.69348 25.1538,-64.06628 52.3796,-82.27732 l 9.2691,-6.2 -4.2986,-1.70478 c -12.1329,-4.81183 -27.5265,-14.66843 -38.2395,-24.48487 -16.1093,-14.7613 -28.6124,-37.23697 -34.6526,-62.29191 -2.1606,-8.96243 -2.455,-9.54117 -4.8533,-9.54191 -1.4042,-4.3e-4 -5.2713,-1.28671 -8.5935,-2.8584 -9.4577,-4.47431 -16.8233,-14.08828 -19.4209,-25.3494 -0.5444,-2.36028 -1.0009,-18.03437 -1.0143,-34.83131 -0.026,-32.36046 0.5025,-37.19211 5.0397,-46.08581 4.6034,-9.02352 14.4898,-16.16608 24.2226,-17.50012 4.2029,-0.57607 4.5405,-0.85755 5.688,-4.74329 1.9981,-6.76545 9.491,-21.663821 15.1757,-30.174341 6.7533,-10.11022 20.224,-23.62386 30.3804,-30.47738 20.4127,-13.77431 41.9427,-21.08725 70.4692,-23.93574 12.8402,-1.28215 48.6235,-2.99151 63.25,-3.02143 l 10.75,-0.022 V 14.776179 0.47543853 l -4.5175,-2.19474003 c -13.9395,-6.77234 -22.1264,-22.6239495 -19.4129,-37.5878005 2.5245,-13.921918 11.8274,-24.204529 25.4924,-28.177044 15.5334,-4.515692 33.0892,3.867513 40.511,19.344707 3.3826,7.05413 3.8339,19.819854 0.9691,27.417988 -2.7723,7.35312 -9.3584,14.6222695 -16.8809,18.6317295 l -5.9639,3.17874 -0.141,13.9939405 -0.141,13.99395 10.7923,0.022 c 14.8397,0.0302 50.6687,1.739 62.7924,2.99471 40.101,4.15345 66.7165,15.72049 89.2774,38.79978 11.6752,11.94344 24.2566,32.351491 28.2442,45.814401 1.1453,3.86655 1.5033,4.16922 5.5948,4.73002 10.3555,1.41938 22.0874,11.30934 26.563,22.39244 2.2759,5.63614 2.3206,6.42942 2.3206,41.24666 0,34.81724 -0.045,35.61052 -2.3206,41.24666 -4.3949,10.88332 -17.4102,21.75333 -26.0466,21.75333 -2.8423,0 -3.0478,0.28602 -4.1325,5.75 -5.1893,26.1418 -17.7257,49.55 -35.2025,65.73083 -10.5484,9.76617 -28.1348,20.89477 -40.3724,25.54753 l -2.8362,1.0783 4.2077,2.39001 c 19.2321,10.92403 39.3097,33.629 48.4165,54.75242 10.056,23.32516 13.4712,53.31056 8.3153,73.00781 -5.0584,19.32463 -19.1957,33.22424 -35.0901,34.50009 -7.577,0.60821 -12.5633,-0.92804 -15.9059,-4.90047 -3.8245,-4.54513 -3.2803,-7.56809 2.8615,-15.89437 8.0947,-10.97379 9.7677,-19.58699 5.3273,-27.42677 -3.2649,-5.76443 -15.7215,-12.91711 -15.7215,-9.02741 0,5.92375 -13.6844,33.93923 -22.0275,45.09591 l -3.8167,5.10389 1.9242,7.89611 c 1.0583,4.34287 4.8603,20.04282 8.4489,34.88879 3.5886,14.84598 6.9642,28.62512 7.5015,30.62032 0.8167,3.03319 2.063,4.26289 7.6056,7.5043 7.9525,4.65078 13.625,10.77241 17.4975,18.88271 3.3426,7.00048 3.6656,12.29152 0.9548,15.63922 l -1.9116,2.36078 h -50.0151 c -48.9577,0 -50.0747,-0.0436 -52.8383,-2.06453 -1.5528,-1.1355 -3.5904,-3.6105 -4.528,-5.5 -0.9376,-1.88951 -4.5376,-16.63372 -8,-32.76492 l -6.2953,-29.32945 -3.9472,0.6228 c -5.1505,0.81265 -27.278,0.7741 -33.5542,-0.0585 -4.5741,-0.60679 -4.9368,-0.49252 -5.4663,1.72233 -0.3119,1.30472 -3.0286,14.69601 -6.0372,29.75842 -3.0086,15.0624 -6.2632,28.74036 -7.2326,30.39547 -0.9694,1.6551 -3.0326,3.95632 -4.5849,5.11381 -2.7695,2.06504 -3.7358,2.1083 -51.5,2.30553 -26.8669,0.11094 -49.6565,-0.19983 -50.8623,-0.69359 z m 98.3774,-56.21931 c 1.206,-6.75845 2.4323,-13.5256 2.725,-15.0381 0.3468,-1.79189 0.1055,-2.75163 -0.6927,-2.75468 -2.376,-0.009 -25.9712,-12.02975 -34.409,-17.52979 -4.6998,-3.06345 -8.6422,-5.43392 -8.7609,-5.26772 -0.2439,0.34134 -13.5551,52.29763 -13.5552,52.90844 0,0.21656 11.8125,0.2984 26.25,0.18185 l 26.2501,-0.21189 z m 142.3073,11.80332 c 0,-0.81513 -12.5417,-49.4055 -13.4912,-52.26897 -0.2334,-0.70377 -4.2973,1.43459 -10.1005,5.31468 -9.9584,6.65828 -21.2531,12.69474 -29.6583,15.85095 -2.6125,0.981 -4.75,2.11062 -4.75,2.51026 0,0.71122 4.5227,23.55356 5.4452,27.50166 0.4526,1.93684 1.2898,2 26.5111,2 14.9488,0 26.0437,-0.38706 26.0437,-0.90858 z m -71,-46.5623 c 10.098,-2.642 24.2871,-9.11229 33.0854,-15.08711 9.2548,-6.28482 21.7682,-18.71927 28.8936,-28.71131 16.2936,-22.84869 25.1071,-49.79467 25.0971,-76.7307 -0.01,-21.44438 -5.637,-36.18623 -18.8351,-49.3279 -7.0306,-7.00052 -7.5243,-7.30162 -11.0502,-6.73968 -21.7158,3.46092 -154.2178,3.44738 -170.492,-0.0174 -2.4765,-0.52726 -3.636,0.25428 -10.0061,6.74432 -21.0102,21.40583 -24.9105,52.72959 -11.4939,92.31011 3.0018,8.85593 11.0351,24.58426 17.037,33.35676 6.6134,9.66645 20.2849,23.45442 28.7642,29.00934 12.3283,8.07653 23.9798,12.93289 39,16.25535 12.1017,2.67689 37.7959,2.13127 50,-1.06176 z m -32.5,-88.98315 c -1.1,-0.45499 -2.9558,-1.88896 -4.124,-3.18661 -2.5419,-2.82355 -22.1419,-29.56065 -28.7161,-39.17257 -5.9194,-8.65459 -6.1893,-12.35748 -1.2599,-17.28679 l 3.4,-3.4 h 35.0529 c 25.0469,0 35.8014,0.34103 37.675,1.19469 5.1122,2.32925 6.8559,9.223 3.8206,15.10497 -2.4504,4.74869 -27.2093,38.39272 -31.9271,43.38471 -3.4992,3.70255 -4.6357,4.30663 -8,4.25224 -2.1568,-0.0349 -4.8214,-0.43565 -5.9214,-0.89064 z m -157.3505,5.32408 c 6.1672,-4.18409 21.6124,-11.91884 27.0582,-13.55044 l 3.7138,-1.11269 -0.7108,-4.60346 c -0.3909,-2.5319 -0.6884,-11.57846 -0.6611,-20.10346 0.041,-12.9189 0.4217,-16.81273 2.2835,-23.38319 1.2286,-4.33575 2.0329,-8.08413 1.7873,-8.32972 -0.2456,-0.2456 -3.8122,2.75046 -7.9257,6.65791 -16.5987,15.76711 -27.8446,38.19734 -30.4861,60.805 -0.4659,3.9875 -0.7487,7.25 -0.6284,7.25 0.1203,0 2.6265,-1.63348 5.5693,-3.62995 z m 329.7396,-3.75662 c -1.4625,-15.31059 -8.4233,-33.19972 -18.3085,-47.0527 -4.2263,-5.92259 -18.8761,-20.56073 -20.5771,-20.56073 -0.4366,0 0.037,2.66807 1.0515,5.92905 3.6399,11.69504 4.7306,33.99274 2.3302,47.63952 -0.5049,2.87038 -0.2799,3.14642 3.4841,4.27412 5.4861,1.6437 20.5277,9.30234 26.6307,13.5594 2.75,1.91824 5.2463,3.51251 5.5473,3.54281 0.301,0.0303 0.2298,-3.26886 -0.1582,-7.33147 z m -98.3891,-107.65349 c 33.8857,-2.27964 52.1817,-7.47654 72.2514,-20.52278 26.1303,-16.98582 40.4661,-43.41106 45.8075,-84.43716 2.1394,-16.43167 1.5711,-68.55457 -0.8997,-82.52982 -3.5459,-20.05581 -10.8928,-39.04388 -20.0868,-51.914371 -6.0945,-8.53159 -19.9516,-21.507 -28.1389,-26.34854 -13.6717,-8.08479 -29.0068,-12.87348 -50.7854,-15.8588 -8.5699,-1.17473 -25.3711,-1.64809 -72.6481,-2.04683 -84.3408,-0.71134 -109.2186,0.93882 -131.5022,8.72266 -33.1681,11.58587 -55.7004,36.25839 -64.9909,71.164151 -4.2161,15.84058 -5.6202,27.91371 -6.2167,53.45418 -1.1736,50.25334 5.814,84.47168 21.5693,105.624 4.8316,6.48663 18.0594,19.29459 24.3307,23.55836 18.6402,12.67328 41.5635,19.20715 73.8689,21.05495 21.029,1.20283 119.8953,1.26037 137.4409,0.08 z m -124.5,-23.66076 c -12.1134,-0.49007 -40.0383,-3.23638 -44.4407,-4.37058 -27.6819,-7.13169 -49.3855,-27.87562 -56.4826,-53.98519 -3.7224,-13.69421 -5.1718,-26.00791 -5.761,-48.94341 -1.5815,-61.56647 7.76,-91.76417 34.1843,-110.505531 21.8425,-15.4918 43.9305,-18.77641 126.5,-18.81127 60.3858,-0.0255 90.9052,1.9702 106.5,6.96414 13.6741,4.37889 29.4301,15.21047 38.0109,26.130831 14.6381,18.62926 19.6042,40.53757 19.6578,86.72183 0.06,51.47581 -6.968,75.25239 -27.6687,93.61143 -22.4339,19.89611 -47.1039,24.08398 -139.5,23.68093 -23.925,-0.10436 -46.875,-0.3263 -51,-0.49318 z m 119,-18.38545 c 27.4224,-1.92544 39.9954,-4.80633 52.1025,-11.93839 14.0003,-8.24734 23.0443,-21.94356 26.8391,-40.64541 5.9526,-29.33563 4.4532,-82.33646 -2.9369,-103.81622 -5.8352,-16.96012 -19.6216,-30.63008 -37.3989,-37.082881 -15.9902,-5.80413 -48.9042,-7.84963 -114.821,-7.13577 -63.1616,0.68402 -80.3287,2.51008 -96.4986,10.264471 -9.6466,4.62612 -21.1779,15.74264 -26.1265,25.18674 -6.9713,13.30409 -10.1333,33.95193 -10.146,66.25373 -0.017,44.16833 5.1346,64.26557 20.4085,79.61075 14.8109,14.87996 29.1764,18.6422 77.9576,20.41669 26.3696,0.95923 90.2579,0.31601 110.6202,-1.11371 z m -74.7374,-37.42784 c -8.9886,-1.95285 -17.8133,-7.01607 -24.9637,-14.32313 -7.1559,-7.31257 -9.1316,-11.73832 -7.2588,-16.25979 1.5092,-3.64341 3.6952,-4.90297 8.5093,-4.90297 2.8925,0 4.2452,0.66866 6.3157,3.12191 8.1006,9.59807 14.6589,13.44092 24.7361,14.4942 10.4181,1.0889 24.6789,-4.25284 29.3689,-11.00085 3.4568,-4.9735 5.9126,-6.61526 9.8955,-6.61526 3.1905,0 4.4579,0.59573 6.5455,3.07673 4.7287,5.6198 3.0576,10.61646 -6.4189,19.19218 -7.0335,6.36494 -15.8821,11.02218 -25.0451,13.18193 -7.7652,1.83027 -13.3796,1.83934 -21.6845,0.035 z m -72.3916,-48.49188 c -7.9234,-4.18686 -13.9172,-15.03333 -14.6543,-26.5187 -0.8067,-12.56949 4.4676,-25.21257 12.9783,-31.11049 5.7297,-3.97069 13.6566,-4.05233 19.4769,-0.20059 14.155,9.36731 17.6534,33.43363 7.1625,49.27204 -6.3401,9.57174 -16.4716,13.04494 -24.9634,8.55774 z m 149.0244,-0.8454 c -4.7738,-3.02744 -9.7835,-9.98261 -11.9918,-16.64861 -1.7632,-5.32249 -1.5438,-18.93944 0.3888,-24.13575 3.6871,-9.91351 11.1591,-17.60794 18.4221,-18.97047 15.9134,-2.98537 30.5455,21.28389 24.8268,41.17844 -5.1772,18.01076 -19.386,26.35142 -31.6459,18.57639 z m -57.8654,-224.398611 c 7.6261,-3.8526 11.1387,-11.696064 8.9229,-19.924776 -2.1455,-7.967709 -11.2916,-13.928268 -19.1065,-12.451697 -16.8865,3.190622 -19.9282,25.688933 -4.425,32.730143 5.4113,2.45769 9.2264,2.36533 14.6086,-0.35367 z"
           id="path300"
           sodipodi:nodetypes="sssssssscsssssssscsssssssssssssscccsssssscccssssssscsssscssssssssscsssssscsssscsssssssssssssssscsssssssssssscsssssssssssssscsssssssscscssssssssscsssssssssssssssssssssssssssssssssssssssscsssssssssssssssssssssssssssssssss" />
        <path
           id="path3065"
           style="fill:#00b6c4;fill-opacity:1;stroke-width:8.3146;stroke-linecap:square"
           d="m 1863.4685,-50.800733 c -0.7491,0.0125 -1.4939,0.0862 -2.2265,0.22461 -16.8864,3.19057 -19.9266,25.68928 -4.4239,32.73047 5.4113,2.45764 9.2253,2.36548 14.6075,-0.35352 7.6261,-3.85253 11.1396,-11.69714 8.9238,-19.92578 -1.8773,-6.97168 -9.1156,-12.40734 -16.1309,-12.66797 -0.2505,-0.009 -0.5003,-0.012 -0.75,-0.008 z"
           sodipodi:nodetypes="sssssss" />
      </g>
    </g>
  </g>
</svg>
